P2
39 142
255
   48   48   46   51   47   46   48   48   49   51   49   50   51   53   52
   53   53   51   52   54   53   52   56   55   54   51   47   47   58   98
  102  100  103   97  104  101   94  102  104   50   49   48   50   52   44
   46   50   48   49   51   54   54   59   61   64   69   67   61   71   77
   72   75   66   69   69   64   57   65  106  106   98  107  104  105  104
  105  108   98   48   48   51   50   48   50   52   49   45   52  202  218
  221  222  212  213  215  216  222  222  230  233  247  249  253  252  254
  254   81  110  103  106  101  104  104   98  101  103   99   50   46   50
   51   49   46   50   53   50  177  179  178  180  182  182  186  193  196
  197  201  208  217  218  224  227  237  240  247  220   97  102   99  102
  103  101  103   98  100  105   47   49   46   50   50   48   50   49  155
  173  167  169  168  173  174  181  182  193  200  202  201  213  219  224
  228  236  240  244  252  109  104  103   95  102  108   99  101  105  101
   48   49   47   51   49   48   48   52  189  172  171  171  174  173  175
  180  183  194  200  205  205  213  216  222  230  237  241  245  252  108
  105  107  100  100  100   98  101   99   98   43   46   52   55   49   46
   47   53  175  166  167  167  172  173  177  178  192  202  202  205  206
  216  220  227  229  236  240  242  254  110   93   99  101   99   99  104
   95   93  101   48   48   41   49   47   53   49   56  169  170  168  168
  171  170  175  178  184  189  197  204  201  211  213  221  225  233  237
  246  254  112  109  102   95   98   96   96   94  101   96   45   46   49
   47   50   53   48   50  170  170  168  166  166  165  167  169  174  182
  190  195  196  202  211  215  217  228  230  236  250  109  105  104   92
   95  100   87   96  100   99   47   48   49   47   58   48   49   54  169
  171  160  164  162  165  161  166  173  180  194  195  201  201  208  209
  221  230  232  237  246  112  102   98  104   99   93  103  103   92   95
   50   47   49   47   47   41   50   49  168  169  166  163  165  164  167
  171  177  184  193  200  203  208  218  219  227  232  237  238  252  112
  102   98  104   98   95   99   96   94   94   49   45   46   45   48   46
   47   52  158  173  169  170  173  175  180  188  198  203  207  213  219
  232  235  248  251  254  253  252  254  110   96   94  102   94   99   95
   93   98   95   48   48   48   46   49   46   51   42  165  173  169  164
  165  172  179  179  183  197  198  203  212  218  225  230  245  246  241
  247  241  102  102   98   99  100   88   98   95   88   94   46   45   48
   47   46   47   45   42  161  181  171  167  167  172  178  180  185  193
  201  207  211  218  225  232  241  248  240  244  241  108  101   97   96
   92   96   94   95   93   98   46   48   44   44   49   45   46   28  165
  176  165  170  168  178  179  174  185  194  201  208  213  218  226  234
  242  244  243  242  245   93   97   97   94   84  101   91   88   93   95
   47   46   46   44   45   49   47  115  170  171  162  167  165  176  169
  171  182  185  191  196  202  215  214  222  230  237  240  241  237  105
  102   94   93   97   91   94   95   90   94   43   45   45   45   44   42
   48   57  146  143  140  145  151  152  158  164  167  173  186  188  191
  203  202  208  211  208  213  207  132  110  100   94   98   92   93   94
   95   93   91   46   46   45   49   44   49   47  138  144  144  136  139
  139  134  141  152  157  156  156  161  166  175  184  186  198  205  206
  210  215  107   92   89   96   90   89   85   88   92   90   42   43   43
   42   43   48   48   48   47   67   89   92   87   81   83   80   80   84
   86   85   86   87   83   98   95  103  114   41   68   91   88   90   92
   93   88   92   95   86   86   45   45   45   46   44   50   47   48   45
   65   94   92   95   80  103   91   80   96   83   85   86  103  105  183
  110  115  107   50   65   89   91   91   92   89   94   89   93   89   89
   46   50   47   46   47   47   42   50   49   73  102   80  107   88   95
  121   78   85   85   88   93  104  114  186  116  117  111   51   63   96
   90   96   92   88   91   85   89   92   92   45   47   45   45   43   46
   45   45   49   72  136   83  170   83  115   84   89   82   87   88   99
  121  130  206  132  138  123   60   64   94   94   88   92   91   83   87
   89   89   89   42   40   44   46   50   42   48   46   51   82  107   81
   85   84   76   87   70   89   89   93  105  187  198  211  218  122  209
   99   61   92  100   89   84   93   90   86   95   88   81   45   42   43
   41   46   42   45   47   67   79  107   83  203   85   85   84   88   92
   94   97  104  192  211  216  218  202  212  229   73   96   86   89   95
   90   91   91   85   89   85   40   46   45   45   44   43   43   44   77
  195   85   84  223   90   95   90   90   92   95   98  110  193  210  220
  136  213  217  221  101   96   90   91   88   87   92   91   86   85   88
   46   46   46   43   41   40   43   71   81   80   82   94  204   91   89
   90   95   95   96   96  121  191  211  220  146  218  220  218  233  102
   97   92   85   87   88   84   86   81   82   42   45   45   45   41   44
   59   80  114   80   86   84   93   92   91   96   97   97   98  100  111
  128  204  218  230  220  221  222  220  218   96   91   94   88   85   86
   86   84   83   45   50   44   43   45   45   67  111   82   84   93   91
   96   93   98   96   96   98  100  101  111  125  191  209  217  213  219
  219  222  221  126   94   89   88   85   86   86   83   80   77   46   45
   45   42   66   76  113   88   88   93   80   93   94   92   96   96   99
   99  100  103  117  173  192  196  218  186  221  220  219  223  142  171
  189  214  165  147   98   84  144   44   45   36   59   69  108   96   95
   91  100  231   98   93   93   98   98   97   99   96   98  113  155  179
  189  213  222  170  219  216  217  223   88   85   80   97  139  159  155
  138   44   46   49   64   73  111   92   98  104   93  103   93   95   98
   98   98   98  100   98  103  122  127  172  181  206  212  225  220  215
  211  215  137  133  129  127  135  123  130  139   49   47   62   63   87
   90  100   89  104  152   97   92   95   97   95   94   96   97   99  105
  113  113  171  191  201  210  215  211  201  207  212  220  132  130  127
  124  121  121  163   45   47   67   74  117   94   98  109  110  222   89
   95   96  102   93   94  100   98   95  107  110  105  121  180  197  201
  207  211  153  211  214  215  184  155  154  156  160  165  151   48   63
   65   75   91   94   95  100  128  137   96   95   94   95   91   89   97
   97   92   99  112  103  108  125  185  192  197  204  223  182  213  214
  213  189  189  189  189  192  159   64   73   76  110   95   93   91  107
  143   95   95   96   94   91   93   93   96   93   95   97  108  107  101
  118  150  183  194  203  211  137  202  211  212  217  173  171  174  180
  151   96   86   82   94   98  107  159  137  230  102  104  100  104  104
  101   94   95   96   94  101  109  121  110  110  122  177  185  189  222
  226  163  204  196  206  193  193  193  195  183  105  145  169  178  188
  179  179  189  194  209  211  216  204  140  106   91  106  106  106  110
  116  131  120  131  129  159  202  213  227  224  235  203  210  237  251
  178  179  180  182  147  149  173  177  182  181  184  190  197  212  216
  217  218  218  219  222  220  221  222  224  224  227  224  227  226  226
  226  226  230  227  238  240  240  241  247  236  173  178  174  144  151
  160  168  175  179  178  179  195  205  209  210  212  215  214  216  216
  218  217  217  219  219  221  223  223  221  223  225  224  226  226  232
  239  242  241  243  182  191  168  137  151  156  158  160  165  168  174
  192  201  205  204  206  209  202  207  202   92  102  203  211  209  210
  212  210  176  209  215  153  151  166  190  235  235  235  243  211  125
  167  132  152  154  160  140  162  165  174  197  198  203  204  202  207
  217  102   96  210  101  101  190   45  218  181   74  209  136  219  162
  218  185  178  232  233  236  242  238  108  163  147  149  157  156  160
  159  165  176  198  202  201  205  204  204  204  212  130   97  200  197
  217  194  176  214   48  216  104  217  201  205  220  157  231  233  229
  234  242  181  212  152  150  152  156  157  161  165  182  198  200  201
  202  204  200  204  201   96  103  209  204  208  205  217  208  208  208
  209  210  214  215  215  216  227  232  234  229  237  216  219  149  149
  144   70  156  159  162  188  198  201  203  201  200  201  201  201  200
  198  199  202  200  203  202  203  204  207  208  212  211  212  213  218
  225  230  232  229  232  234  182  148  148  154  157  157  155  164  191
  198  199  202  110  193  196  201  197  191  190  186  189  180  187  188
  190  196  200  202  205  208  210  213  217  219  224  229  226  227  227
  193  148  146  148  149  156  158  168  192  198  197   91  187   91  184
  109  112  165  174  170  175  176  172  170  171  173  171  178  185  189
  195  207  205  215  227  228  224  222  227  199  137  135  149  145  146
  150  161  181  190  183  161  172   88   83  174  146  159  131  100  169
  172   94   78  157   75   64  168  167   94  128  162  176  170  213  201
  189  121  229  203  123  124  131  132  133  137  148  167  185  174  160
   79  169   85  170  133  151  148  120  154  109  124  118  145  156   94
  141  168   88   72  162  123  142  131  213   89  149  203  188  122  127
  129  125  134  133  142  165  174  174  110  134   80   76  170   82  185
  157  110  100  176   66  158  143   81   92  115  167   87  140  149  151
  138  194  176  135  113  188  198  124  125   60  127  127  132  144  169
  177  178  103   78   74  172   85  101  170  110   79  168  160  126  114
  162  169  135  139  129   87   79  168   80   79  194  177  210  197  202
  149  121  123  125  128  135  131  144  132  116  102   95   87   87   88
   89   91   95  112  127  136  134  141  150  147  155  148  164  160  160
  153  155  145  151  164  189  171  159  132  151  118  120  125  125  126
  132  148  175  175  173  170   87  169  172  171  174  170  170  170   86
   88  171  171  168  167  165  167  165  160  164  166  178  167  184  198
  166  158  184  138  116  119   73  122  126  128  150  166  169  170  154
   92  171  172   87  172  146  164  165   91  126  167  176  152  183   80
   76   83   77   80   79   80  127  182  192   89  128  184   96   97  115
  119  124  126  125  147   81   85   87   88   87   92   85   83  118   80
   80   85   81   77   81   84   77  170   79   68  168   53  170  165   80
  132  105   84   95  110  113   66  115  118  108  122  126  127  148  175
  173  151   92  153   91  156  170  163   83  165  167   84   69  165   72
  164  162   79   77   75   54  163   79  164  158  181  196  125   99   83
  106  113  116  104  120  125  131  151  188  180   91  170  140  110   90
  175  169  169   81   75   81   65   82  140  166  141   63   77  114   74
  139   75  150   78  121   71   97  147  166   60  106  112  114  120  125
  131  153   85   81   89   84   89  168  100   86  173  168  174  168   83
  172   79  170  170  128   75   71   75  107  138   75  112   76  178   90
  164  166   84   58   79  113   74  119  123  130  156  179  167   78   83
   93  114  169  168  172  167   95   79   78   68   68  150  163  142  125
   73  149  159  146   70   64  160  176  122  183  166  177   82  104  115
  112  114  123  132  161  174  179   85  161   87  155  170  118  141   81
   80   72   79   66   65   81  146   84   68   74   70  114  128   67  133
  162   83   80   80   78   81   60  107  110  120  118  121  130  158  171
  178   86  168   89  165  175   79  169  165  164   67   82   97  165  162
  164  164  164   75  165  174  112   51  167  163  173  188   82   81  167
   96  102  112   92  116  124  131  158  168   82  126  169   86  172  165
   91  166  170  150   81  177   76   87  167  168   62   72   73   73  155
   85   59  164  167  177   76  128  171   80   44   77  109  110  115  121
  133  156   77  122  170  170   90   88   90   84  168  118   87  167  166
  162   77   78  129   74   58  161  162  111   78   74  164  169   91  155
  100  170   76   44   80  109  107  115  121  136  157  166  171  172  167
  165  174  178  166  172  174  166  166  167  166  165  143  167  169  164
  162  168  161  100  161  162  163  175  181  110  167  164   60   85  105
  108  115  120  137  118   68   72   82   86   79   76   85   82   80   75
   79   79   73   69   72   76   75   77   74   63   64   58   57   62   67
   74   81   73   82   66   73  100  103  109  111  113  120  132  113   69
   98  140  156   79   93   70   76   80  143  108   84  127  107   73  169
   87  126  123  108   67  144  147   72   65   68   77  145   93  141   72
   96  100  108  114  111  120  135  102   69  161   78  110   79  165  158
  160   78   74  114  180  135  152  161  157   67   57   67   78   62  164
  101   63  110  104  135   79   55  120   65   37   90  106  109  113  115
  135   90   54  149   97  143   72  128  145  168   69   68   78   71  105
  137   50   82   78  136  139   89   80   47   68   69   62  122   81  104
   77   80   58   78   91  104  110  115  121  134   75   71   91   98   87
   81   73   81   76   77  107  113  113   65   69  147   76  103   63   75
  120   65   70   69   49   88   74  156   82   87   70   67   71   89  110
  109  112  119  136  161  168  168  168  170  158  155  163  166  159  163
  164  166  162  172  171  163  162  155  158  163  161  158  158  158  162
  155  167  180  180  155  159   64   81  105  104  115  118  138  164  171
  169  129   92   88   90   90  115  152  168  168  171  167  165  156   57
   81   40   50  162  122   58  125  109   46  172   51   52   90   76   84
   55   77  104  109  113  120  139  167  164   90   88   97   92   87   86
   85   88  139  164  168  167  168   77   65  104   53   56   81  144   63
  152  140   58  164   37   69   85  143   85   69   75  107  110  113  121
  138  162   86   82   86  108  145  122   89   84   87   81  141  167  166
  163  155  159  158  113  102  162   61  127  105   90   56  162  166  143
  132  147  145   79   66  103  101  113  117  140  104   86   86  121   93
   92  141   89  118   87   78   99  160  167  163  165  165  161  164  164
  164  166  162  164  158  158  163  170  178  171  154  155   65   64  114
  103  112  119  137   88   87   87  119   82   88  123   82   97   89   83
   80  150  165  166  164  168  165  166  166  164  164  166  164  122   89
  115  110  174  169  161  151   82   63   93  108  113  121  123   91  109
  133   89  103   96   88   93   89   76   70   76  124  165  167  164  164
  166  167  167  168  164  164  163  113  103  116  107   93  166  157  150
   75   64  107  105  114  122   87  123  158   86   78   98  130   93  146
   80  120  135   93   80  165  165  166  164  166  161  161  163  160  162
  161  113  126  113  104  118  165  155  147   90   65   97  108  110  121
   88  136  163  128   89  158  168   89  100   84   70  160  142  113  166
  164  164  163  164  162  165  164  163  166  144  123  129  119  104  176
  168  157  149   95   82  105  108  112  121  149  130  155  156  114   94
  167   84  103  156  123   83   81  120  162  166  163  166  163  165  164
  155  106   89   97  118  143  127  103  172  164  154  146   90   85  100
  102  111  123  135   90   94   98   94   75   97   96   95   92   96   97
   77  142  161  165  166  164  165  165   94   91   94   93   90   78   81
  120  120  172  164  154  145   74   88   85  107  112  120  144   80   94
   85  122  102   97   98   93   94  107   86   64  161  163  162  161  164
  163   94   91   95  101  101   90   91   83   79  144  172  165  155  146
   93   93  102  110  113  125  148  138   89   93   93   95   98   93  101
  102   87   80   94  168  164  163  166  163  178   94  102  107  113  124
  101   94   86   83   83  164  164  150  142   81   92  105  107  106  127
  149  163  122   86  100  101  102  103  100   83   73   83   66   60  129
  160  160  164  102   97  108  119  130  118   98   94   88   81   80  137
  157  152  142   87   99   52  109  114  128  152  166  170  114   82  103
  104  106   82   70   68   84   80   73   71   74  139  160   94  103  109
  126  145  128   95   87   78   76   78   68  162  151  140   85  105  104
  107  111  131  153  171  172  105  160  137  124   89  156  129   74   96
   90   84   71   69   69  168   99   96  102  123  120  104   94   82   85
   79   82   59  160  152  139   82  104  102  114  114  126  151  166  166
   99  125  159  148  159  139  127   74  101   93   79   76   69   66   80
   90  100  116  139  118  107   94   75   74   76   80   56  126  119  145
   48   99   49  105  113  127  152  169  166   60  161  173  155  153  152
   71   96  101   92   91   84   70   65   85   97  102  110  131  113   95
   87   89   70   72   77  118  103  103  108   53   98  104  105  113  127
  151  165  170   75   68   81   83   80   71   75  116  121   98   84   76
   71   62   89   96  108  102   98   95   90   83   75   66   74   77  164
  118   99   64   79   92   98  106  114  122  135  154  153  106   99   82
   84   81  102   66  119  131   97  103   88   72   79   94  103  109  103
   95   84   76   70   65   65   68   62  142  124   94   49   89   93   48
  107  112  117  123  133  135  125  121   89   90   91  132   69  104  122
  128   88  116  111  110  121  131  134  132  103  101   75   65   61   78
   77   73   79   98   74   43   92   91  100  113  117  125  128  134  143
  135   82  109  101  112   77   75   90  103  119  122  104  106  109  121
  128  132  130  125   95   80   74   67   65   72   92   87   78   90   65
   98   87  100  119  132  141  145  130  129  118   89   80   72   81   73
  102   94   91  100  130  110  106  117  122  132  128  126  117  108   84
   75   69   75  127  121  106   83  120   46  100  110   81  132  155  160
  160  128  139  135   88   75   65   62   83  120  121   94   91   98  121
  111  121  128  126  131  116  115  110  138   78   84   80  138  167  104
   88   55   24   98   96  106  118  147  177  194  144  155  101   97   93
   86   76  118  117  126  128   88   86  102   85   96  102  102  103  121
  116  108   92   85   87  166  218  194  103   80   61   49   91   98  107
  110  123  149  173  180  104  111  114   97   97  125  122  122  119  106
  100   85   89  110   92  102   92   87   89  105  123   80   81   78  137
  141  123   95   76   61   64   94  100  100  107  117  135  159  104   92
  107  106  103   98  131  116  120   99   83   81   92   83   90   97  102
  110  111   97   94  104   59   68   75  147  123  112   86   72   60   77
   53  101  102  107  116  135  161   97  102  124  115  103  130  125  109
   90   87   81   81   81   80   80   92  111   97  113   99   98   96  101
   78  107  127  119  103   91   69   62   51   54  101  100  105  116  131
  152   94  108  126  141  118  133  133   99   81   82   86   86   84   91
   81   93   93  104  116  110  115   87  104   97  113  102  105   97   80
   63   61   62   94   97  103  107  117  134  147   98  109  126  151  120
  131  125   87   82   84   89  108   98   84   80   83   88   84  112  109
  101  100   99  110  115   96   91   85   73   65  137   65   93  100  105
  106  115  138  162   99  106  118  132  130  124  116   81   83   85   99
  102  113   96   83   73   85   81   96   96  110  116   92   94  116   93
  105   81   70   63  138   52   93  102  100  110  115  134  154  100  101
  107  113  139  124   88   83   79   81   98  111  111  115   90   75   95
   74   75  120  117  119   94   93   97   98   93   83   63   68   86   62
   93  101  106  108  114  134  162  161  100  102  106  115  112   81   76
   74   76   74   85   82   84   73   66   80   87   75  104  123  123   90
   86   88   81   87   76   63   68   49   67   93  103  102  107  117  137
  157  163  161  100  101  108  116  102   74   70   73   70   72   78   74
   67   67   68   74   78  103  125  130   91   84   92   87   81   73   69
   60   39   63   95  101  104  109  114  134  153  163   65   89  100  101
  109  130   75   80   75   69   70   67   70   66   68   75   84   95  105
  127  134   88   90   89   86   78   68   70   74   49   54   96  103  110
  111  116  134  152   81   54   69   90   94   75  109   73   73   76   78
   74   70   68   68   71   91   95   92   92  114  133   80   85   77   71
   72   70   80   54   51   59   93  101  105  106  115  135   88   59   58
   45   51   58   73   83   71   68   71   75   79   78   73   82   98   87
   83   81   88  105  125   86   86   84   69   71   77   78   55   52   31
   95   99  105  109  119   98   61   60   51   47   51   55   55   68   68
   70   71   70   72   69   74   77   81   78   74   74   80  100  120   87
   80   72   66   71   73   63   55   45   42   96  101  105  108  113   69
   60   52   46   57   52   63   54   74   73   67   70   69   70   67   72
   70   70   69   69   69   77   96  125   75   81   72   65   65   60   57
   93  105   31   95  103  105  109  103   57   58   55   64   59   64   65
   58   54   65   83   67   70   70   68   68   68   68   66   67   67   73
   94   74   86  132   81   68   67   87   46   72   69   52   97   99  103
  106   52   50   53   47   51   60   59   69   49   63   62   65   64   69
   68   67   67   63   66   66   67   69   78   84   73   76   80   68  110
   79   77   69   95   60   59   95  100  104  106   66   57   57   54   51
   50   69   62   53   72   67   78   62   58   64   64   58   60   62   63
   72   64   66   81   63   60   63   60  118  123  103   95   86   52   58
   94  100  104  109   83   65   60   63   45   46   46   64   60   59   65
   63   50   64   56   59   60   61   66   58   66   73   81   62   75   37
   55   81  118  118  102   98   91   74   60   96  103  104  108  110   59
   66   61   56   51   54   73   66   65   45   46   53   64   61   61   59
   60   65   62   61   58   63   61   62   56   56   73   93  112  117  101
   93   97   57   96  100  104  110  116  111   59   60   60   72   77   75
   64   60   56   58   47   61   61   57   57   60   57   71   86   81   62
   64   72   58   54   41  104  113  121   85   95   93   54   97   94  104
  110  116  136   73   54   65   55   64   71   58   54   47   49   59   61
   62   60   57   59   59   62   68   69   62   66   66   60   37   54  103
   96  108   89  135   86   60   96   98  103  110  117  138  154   77   77
   58   63   54   46   46   77   55   60   65   62   63   61   63   63   66
   62   73   75   65   62   62   46   54   93  137   75   77  142   76   64
   95  107  104  109  119  134  162   78   66   58   59   33   67   72   78
   63   67   67   67   64   62   63   63   61   71   86   87   66   64   65
   67   69  106   82   88   80  143   62   55   95   95  104  108  118  137
  116   68   61   52   47   45   93   47   73   69   78   73   72   65   66
   64   66   62   70  125  124   71   65   62   66   86  124   74  112   67
  144   64   56   93  108  104  108  117  138  108   63   71   62   64   71
  100   66  105   75   80   77   70   67   69   66   62   61   71   83   80
   67   71   65   63   76  114   81  120   88  140   66   55   81  101  103
  107  110  136   93   69   60   63   53   83   96  119  130   87   72   80
   77   70   71   73   71   68   67   73   69   68   69   59   60   68   79
   79  104   69  137   65   57   97  101  101  100  118  137   88   70   57
   61   65   91  106   97   94  100   80   81   77   88   78   75   69   73
   68   70   70   67   78   71   65   82   71   89   84   60  117   64   58
   98   99  105  109  118  137  152   66   58   63   74  128  112   89  125
   97   83  120  125  111   98   88   82   75   72   75   62   74   79   83
   97   97   84  127   82  113  110   64   58  105  103  104  113  120  140
  161  103   94  102  118  140  115   79  129  123   85  122  125  125  124
  122  117   88   79   73   68   69   87   72   73   70   88   96   73  147
  141   66   66  100  102  107  111  121  141  162  168  169  136  126  130
  129  108  136  126  107  121  127  127  125  125  125  121   91   70   69
   71   70   71   82  111   90   91  128  151  140   65   60  104  102  108
  110  122  144  164  168  170  143  128  132  129  120  101   83  109  125
  131  128  128  127  127  127  125   65   68   72   69   73   80   97   88
   78  149  152  139   64   59  103  100  109  116  121  140  162  170  173
  168  130  141  137  124  104   86  119  130  129  127  130  131  131  128
  128  122   67   70   65   71   74   81   89   88  158  153  136   63   57
  104  104  113  119  124  144  165  170  172  171  137  125  134  127  103
  104  124  127  129  131  133  131  136  134  134  126   69   71   68   71
   69   68  110  170  155  153  134   60   61  102  110  112  116  125  147
  170  172  171  173  140  142  119  122  130  115  122  127  133  134  132
  137  139  145  135  129   88   70   68   74   71   79   89  163  159  157
  130   65   63  107   98  114  121  126  142  172  173  172  169  144  128
  121  122  135  115  111  130  134  131  134  137  142  142  137  130  115
   69   67   74   73   94  162  161  157  156  124   66   67  108  111  115
  120  126  147  102   95   93  117   98   92  167  163   66  123   63  173
   66  135  134  133  137  137  117  106  114  125   89  111  163   70  129
  167  155  151  120   39   36  105  110  115  123  129  139   81  156  157
   93   86   95  120   85   68  126   75  151  137  147  148  159  100  138
   76   63   55  111  123  101  155  151   88  126  118  122  118   34   32
  108   86  117  119  129  142   91  179   75   71   79   68  167  148   65
  156  172  139  133  123  113  151   75  126   71   73   64  144   72  139
  127   97  111  129   87  151  109   45   46  110  115  117  123  128  125
   77  151  168   68   74  126  100  172   83  167   81  156   71  140  145
  114  138  142  112  117   68  102  100  151  101   80   84  119  142  148
   87   77   80  110  117  119  124  131  143  157  171  177  175  176  175
  175  175  174  174   82  178  147   84   73  137  131  123   81  141  102
   74   69  164  165  164  160  153  149  139   84   92   95  108  114  117
  126  131  141  154  169  175  176  176  178  178  178  182   91   88  171
   89  151   81  116  138   83  129   83  164  168  167  170  168  166  160
  154  147  117   88   86   85  107  118  120  129  133  136  149  161  177
  178  184  180  174  180  174  164   86  175   87  170  126   77   83  123
  170   87  165  171  172  172  170  166  156  149  152  111   81   78   72
   69  118  122  130  136  143  150  158  170  180  178  178  178  177  178
  172   86  169   79  169  111   72   83  153  168   88  172  118  170  177
  169  164  155  150  147  101   66   61   56   58  120  122  127  136  141
  149  155  166  172  178  176  179  176  183  174   88  169   87  136   89
  149   88  108  144   81  165  123  129  147  166  163  152  148  134   72
   54   54   50  114  124  122  131  134  140  148  155  159  171  174  179
  178  178  175  176  129  176  157   89  138  173  166   81   81  148  170
  109  133  161  167  161  155  155  115   56   50   49   53   59   91  117
  128  134  139  144  155  160  168  172  174  178  178  177  179  174  178
  177  176  175  175  174  172  173  171  170  172  169  169  166  161  153
  127   68   51   50   51   53   53   60   62   66   79  121  140  150  159
  166  167  174  179  170  176  170  164  156  153  162  175  176  170  170
  171  172  172  172  170  166  154   90   87   71   67   62   58   60   62
   55   37   42   50   59   70   77   80   81   81   88   96   93  100   97
   94   95   96   94   95   97   93   95   93   87   83   86   92   91   87
   92   88   71   96   89   93   90   79   74  108   92   66   59   47   38
   44   56   64   77   86   88   90   94   96   94   96  100   98   98   99
  101   98   96   88   81   91   87   67   61   97  113  122  121  115  117
  116  109  104