P2
80 80
255
   32   24   14   10   10    8    8    9    9    8    8    8    6    4    6
    6    7    5   13   10   15   20   29   38   49   56   59   60   58   58
   52   50   48   48   49   49   46   45   45   40   38   37   34   35   34
   28   25   22   21   19   15   12   12   11    9    9    8    7    6    6
    7    7    9    7    6    6    6   10   16   20   31   53   70   75   75
   78   87   97  113  113   27   20   13   11   11   10    9    8    7    6
    6    7    7    6    2    3    6    5   13   14   23   31   37   48   58
   61   61   62   61   61   58   56   55   54   52   51   51   50   52   47
   45   43   41   41   38   33   31   26   23   22   18   15   14   12    9
    9    8    7    7    7    6    6    8    8    8    7    6    6    8   11
   25   47   66   76   80   84   90   99  103  101   20   14    9    9   10
    7    8    8    8    6    6    7    5    5   11    9   11   11   25   30
   42   51   62   70   74   73   71   74   74   73   70   68   64   62   62
   61   60   59   57   53   52   49   46   46   45   38   34   28   26   24
   23   20   19   16   12   10    9    8    8    8    7    7    5    6    6
    7    7    7    9   10    7   16   33   58   80   87   89   91   97   97
   13   10    9   10   10    7    8    7    6    6    6    5    6    7    6
    5   10   16   34   42   55   61   72   77   77   75   74   77   77   75
   75   74   71   69   68   67   66   65   62   58   57   54   52   50   49
   42   37   31   28   28   24   22   20   16   13   11   10    8    8    9
    7    7    7    7    7    6    6    6    6    7   10   12   18   37   62
   81   91   96   97  100   13   10    9   10   11    8    9    8    7    5
    5    5    7    9    9   14   24   34   54   62   72   76   81   83   85
   84   83   84   83   80   75   74   72   71   69   68   68   68   67   64
   63   60   56   53   51   45   42   36   32   30   27   24   22   18   15
   13   10    8    9    8    8    7    7    7    6    7    7    7    9    9
   10   15   16   15   28   51   78   96  102  100    9    9    8    6    7
    5    7    6    6    6    7    7    8   11   15   22   38   49   66   71
   79   84   87   88   89   91   90   87   85   82   81   81   80   78   77
   74   74   74   72   69   68   64   58   56   52   46   45   39   37   35
   31   27   26   23   21   18   12    9    9    8    7    7    7    7    7
    7    8    9   10   11    7   19   28   27   25   35   60   86   99   98
    9   11    9    8   10    8    7    5    6    6    7    8   10   15   28
   37   52   62   76   79   86   92   93   95   96   97   95   90   87   87
   81   81   80   79   77   75   74   73   73   71   70   66   60   58   54
   49   48   42   40   38   33   32   30   29   24   21   15   12   10   10
    9    8    7    8    7    7    9    9    9    8   12   17   27   34   27
   22   43   78   92   95    9    8    7    8    8    8   10    3    6   10
   10   16   13   31   43   61   71   79   88   95  101  103  100  100  102
  102   98   93   91   88   85   83   82   82   81   81   78   75   73   73
   70   67   64   60   56   53   51   47   41   38   36   37   37   36   31
   28   22   18   14    9    7    8    8    8    6    7    8    8    9    9
    9   16   17   32   42   30   38   66   88   92    8    9    8    9    8
    8    7    5   10   11   10   22   26   48   64   77   84   92  102  107
  110  108  106  107  106  104  102   97   93   91   88   85   84   83   81
   81   78   75   77   75   74   69   67   66   63   59   54   52   48   43
   40   40   40   41   38   32   27   21   15   10    9    8    8    7    8
    8    6    8    8    9   12   11   11   25   43   57   49   57   78   83
   10    8    9    8    5    5    6    7   12   13   16   36   46   69   83
   93   97  106  113  116  118  113  113  113  111  107  104   99   95   94
   87   86   85   84   83   81   79   77   74   72   70   66   65   64   63
   61   59   59   56   52   47   45   44   46   43   39   31   25   18   13
   10    9    8    8    8    7    5    6    6    8   10    8   13   23   32
   68   59   59   68   75    8    7    7    5    6    6    8    9   12   21
   30   51   62   82   96  105  107  113  120  121  121  115  117  113  109
  107  104   99   95   93   88   87   86   84   83   81   79   78   76   73
   70   67   65   67   67   66   66   65   63   61   55   52   48   47   45
   41   35   29   23   18   13   11    9    9    9    8    5    5    5    8
    9    9   18   21   23   55   63   66   65   69    7    8    8    6    7
    8    9   13   22   36   46   64   78   97  108  116  117  122  126  124
  124  120  118  114  109  105  103   99   96   92   91   90   88   86   84
   81   79   77   78   75   71   68   67   67   67   69   70   69   68   68
   64   61   56   53   48   45   39   33   27   22   15   12    9    9    9
    8    7    6    6    8   10    9   14   22   25   43   64   69   68   68
   10   11   10    6    6   10   12   28   42   58   63   78   94  114  120
  127  127  129  130  127  127  124  119  115  111  106  102   99   96   93
   90   90   89   88   86   83   80   79   77   74   69   69   68   68   67
   69   71   71   73   73   73   70   64   60   55   52   46   40   33   26
   19   14   11    9    9    8    8    7    6    7    6    6   11   23   30
   36   59   74   78   77   10   11    9    7    9   15   29   54   70   78
   82   99  115  127  128  134  131  131  132  128  128  125  119  115  110
  106  102   98   95   92   91   90   90   88   86   83   78   76   74   72
   69   70   72   72   73   74   76   76   78   79   77   76   72   69   64
   61   55   47   39   35   27   21   13   12    9    9    8    8    6    5
    4    7   10   21   29   36   47   72   84   68    7    8    7    8   18
   27   46   76   88   92   97  116  129  133  131  135  132  131  132  130
  128  127  117  114  110  105  101   96   92   91   94   95   92   89   84
   78   71   69   65   64   64   66   69   71   73   75   80   81   82   82
   79   76   76   76   71   67   60   51   45   40   34   28   15   12   10
    9    8    9    6    5    7    7    5   14   24   41   35   63   88   84
    3   11    8   12   21   36   62   89   97  100  105  123  132  130  135
  133  132  130  128  128  129  126  121  113  107  107  101   95   94   93
   93   92   90   83   76   71   65   62   64   59   58   63   67   69   74
   81   80   84   84   82   80   80   78   75   73   69   61   56   47   40
   39   30   20   15   11   11    8    7    7    7    7    6    5   12   17
   49   32   56   79   85    4    9    9   18   35   53   84  103  109  118
  119  129  133  132  134  132  133  129  124  124  123  120  121  112  107
  101   95   91   92   90   92   89   83   77   70   64   60   59   57   54
   56   60   65   70   78   84   84   86   87   85   84   84   81   78   74
   73   67   62   55   46   42   32   23   18   13   11    8    7    9    7
    7    7    2   11   15   38   34   40   67   68    5    9   14   35   56
   80  101  115  116  125  125  128  130  132  131  130  128  127  122  123
  122  119  115  111  107  105   99   96   94   92   82   77   71   67   65
   61   62   62   64   64   64   66   69   74   80   84   85   88   88   87
   86   87   85   80   76   74   70   66   58   51   46   35   30   22   17
   13   11    9    9    7    5    7    0    5    4   20   44   48   55   59
    7   12   25   54   75   98  117  124  122  130  129  132  133  135  130
  128  127  124  120  121  123  119  114  110  108  102   96   91   85   77
   71   69   68   70   73   72   74   76   75   77   77   75   76   77   80
   82   86   89   91   90   90   91   89   83   80   78   71   69   60   54
   51   40   34   26   19   15   12   11   10    8    5   10    8    9    5
    8   31   41   51   60    9   15   32   66   86  104  122  131  128  132
  132  137  137  136  133  129  126  122  119  120  120  119  118  111  105
  100   93   87   78   70   61   63   69   75   80   80   82   83   80   82
   83   81   79   80   80   81   86   90   93   94   95   95   92   88   83
   81   76   71   64   58   55   44   37   28   22   16   13   11   11    8
    8    8    8    7   11    8   15   35   53   55    9   18   41   79   95
  113  122  133  132  135  133  136  133  131  132  128  125  122  117  119
  122  119  116  111  106  100   90   80   71   63   59   65   76   84   89
   90   89   88   85   85   85   83   82   82   82   84   84   91   95   96
   96   95   94   90   85   82   77   75   69   61   57   46   40   31   26
   19   14   10   10    9    9   10   15    9   12    9   10   36   50   49
   12   27   54   93  105  121  129  138  137  141  138  138  134  131  128
  127  124  121  117  119  121  118  116  109  102   93   78   65   60   57
   77   86   96  102  102  103   99   96   90   86   84   82   81   81   82
   86   87   93   99  100   99   97   95   92   87   85   78   76   71   64
   61   52   45   38   31   25   16   13   12   10   10   17   29   24   15
   11    5   20   37   43   19   36   64  100  109  125  131  138  136  140
  135  133  132  132  129  127  125  123  117  117  116  112  112  102   92
   82   69   63   72   81   94  104  111  112  108  105  100   94   90   83
   78   77   76   77   80   85   91   99  105  105  102  101   99   95   92
   88   80   75   71   68   66   59   50   44   38   30   20   14   15   14
   15   17   23   24   12   16   15   15   26   35   23   49   75  103  113
  127  131  142  137  134  133  132  135  128  127  126  123  122  119  114
  113  114  107   92   81   72   74   74   87   95  110  116  121  117  117
  102   95   87   78   73   68   60   58   63   73   83   93  100  109  112
  107  105  103  100   94   88   81   75   74   73   68   63   55   49   42
   35   26   19   17   15   16   18   18   16   14   17   18   14   21   28
   29   56   82  106  111  124  130  138  135  135  135  131  132  128  124
  124  125  126  123  117  112  110  102   88   79   73   81   83   97  107
  123  115  121  117  103   82   77   64   54   48   49   57   66   71   79
   89  100  103  108  108  105  102  102   99   94   89   83   78   75   74
   69   63   57   52   46   39   29   23   22   20   19   16   16   16   13
   15   17   18   19   21   33   63   87  106  110  122  129  134  132  136
  135  129  129  127  124  124  124  125  124  118  112  110  100   88   81
   79   89   94  106  112  119  120  123  104   78   60   49   33   36   39
   48   60   71   83   96  106  107  106  107  106  102   99  100   96   93
   90   84   80   77   74   70   65   59   54   51   44   34   28   27   25
   24   17   14   16   15   15   17   19   18   19   36   64   86  104  109
  120  127  131  131  132  135  131  128  127  125  124  123  123  123  119
  115  112  103   93   89   88   98  100  109  112  118  120  101   62   37
   25   22   31   34   61   89  104  110  112  112  107  109  105  104  102
   99   98   95   90   89   89   85   81   78   74   71   68   62   56   53
   47   37   31   30   29   28   20   17   19   20   20   20   19   19   20
   40   66   85  103  106  117  123  128  130  127  130  131  127  125  126
  125  123  123  123  122  118  115  109  100   96   93  101  103  109  111
  119   92   59   31   15   13   26   60   79   95  106  109  110  116  119
  114  111  106  102  100   96   95   92   87   86   85   84   81   77   75
   73   68   62   58   56   51   41   36   35   34   31   24   20   23   27
   30   27   21   21   24   44   68   85  102  103  112  119  122  127  122
  122  126  123  123  124  125  126  127  126  125  121  116  114  105  100
   94   98  101  112  117  100   50   25   18   14   39   69   94  115  114
  113  119  126  129  125  118  115  106   99   96   92   90   90   87   83
   83   80   78   78   76   73   70   65   59   57   53   47   42   40   37
   33   27   22   24   30   34   35   29   22   28   49   68   82  100   99
  106  111  114  121  118  118  118  114  120  122  126  128  129  128  126
  121  118  116  109  105   97   99  101  111  118   67   26   20   32   41
   80  103  115  114  114  118  126  132  129  121  112  110  102   96   92
   89   87   86   85   81   81   79   77   76   75   73   68   65   60   57
   56   50   46   44   42   36   26   21   23   26   29   35   35   29   30
   50   65   78   97   97  103  107  108  115  115  114  112  108  118  121
  124  127  126  125  124  121  119  116  112  110  101  102  100  110  115
   42   23   44   85  104  115  106  112  108  124  137  138  132  125  117
  109  101   95   92   90   88   87   85   83   82   80   78   76   76   76
   71   67   64   59   57   55   52   50   47   44   39   27   20   21   19
   22   30   38   38   35   48   67   79   90   94  104  107  106  111  113
  110  108  105  110  116  120  125  125  126  125  124  121  119  115  110
  106  103  106  112  120   59   62   81  105  115  111  108  115  123  133
  138  139  132  124  117  105  101   94   90   88   85   84   84   81   78
   77   78   78   74   74   72   69   64   62   58   58   55   51   49   50
   44   30   23   21   19   22   27   36   41   41   49   69   80   90   91
   95   99  101  107  104   98   96   96  102  110  115  122  124  126  127
  125  123  122  118  113  109  108  111  122  130  105  110  118  123  119
  115  120  130  137  142  139  136  128  120  114  101   99   93   88   87
   84   82   81   78   78   76   77   78   77   76   75   72   64   61   58
   58   56   53   51   51   49   36   28   24   23   23   27   40   44   44
   52   71   77   89   91   91   95   96  100   93   88   88   91   97  104
  110  116  121  125  127  128  128  124  121  118  116  114  117  127  135
  141  140  137  131  129  132  137  140  144  144  136  132  125  119  113
  101   97   90   87   85   83   81   79   76   76   74   76   79   77   77
   76   71   64   62   59   58   57   55   52   52   50   42   35   32   31
   26   25   40   48   47   54   72   75   86   92   92   91   81   79   77
   78   82   84   92  100  104  111  117  124  129  133  134  134  132  131
  129  129  129  132  136  141  137  134  134  140  147  146  141  143  140
  132  130  124  117  113  101   97   89   85   83   80   79   79   76   75
   73   75   77   75   74   73   70   65   62   60   59   57   56   54   51
   51   47   44   42   42   34   29   43   51   52   50   71   75   87   90
   87   80   68   68   75   81   86   89   97  100  104  108  116  122  130
  137  140  144  141  138  138  137  135  134  135  131  132  136  139  143
  146  145  145  144  142  134  131  123  116  110  101   99   92   85   82
   78   77   77   75   73   70   73   75   74   72   71   68   64   62   61
   59   58   56   54   51   51   50   50   51   54   46   38   49   53   58
   40   65   75   85   79   73   68   65   77   88   96   97  100  109  104
  106  109  115  121  129  138  145  147  141  138  135  133  130  129  129
  132  133  138  142  143  143  145  148  148  142  135  131  123  115  111
  104  101   93   86   82   77   75   74   72   71   69   71   73   72   72
   70   67   64   64   62   58   58   55   53   51   52   51   50   52   56
   54   50   57   56   60   32   55   71   77   67   62   62   69   89  100
  106  109  108  113  110  108  110  116  122  129  139  146  146  142  136
  129  124  121  122  123  129  130  134  139  144  146  148  148  148  142
  133  129  122  113  111  104   99   91   85   82   78   74   71   69   70
   68   68   70   68   67   67   65   62   63   62   60   57   56   54   53
   52   48   51   54   60   63   60   60   61   60   27   48   62   66   57
   58   70   82  100  109  116  121  118  116  112  111  112  116  121  129
  139  146  139  136  129  122  114  107  108  111  120  128  135  138  142
  146  148  148  150  141  132  129  122  111  106   97   95   88   84   82
   78   75   71   68   69   68   68   67   65   65   65   61   60   61   62
   58   57   56   54   53   51   48   53   57   64   71   67   63   62   62
   27   38   55   53   54   60   76   97  114  122  125  124  122  115  112
  116  118  113  130  127  137  136  136  130  123  114  102   98   91   98
  108  116  128  137  142  143  145  146  148  139  132  128  120  110  102
   93   90   85   83   81   78   74   71   70   68   67   64   64   64   63
   62   62   64   60   58   57   59   58   54   51   48   51   52   62   67
   74   68   69   67   63   20   27   42   44   53   68   96  110  124  129
  129  127  126  110  101   96  119  125  137  138  139  140  131  127  122
  114  101  100   95   98   91   98  111  126  137  143  145  147  148  138
  130  124  114  106   97   89   85   81   79   77   74   71   69   68   68
   65   63   63   64   62   62   63   62   59   59   58   59   58   54   51
   50   52   51   56   61   74   73   68   58   50   12   21   37   40   54
   77  101  112  124  121  115   96   80   52   57   54  106  124  134  138
  132  135  135  128  121  116  103  108  102   98   88   88   96  113  128
  136  137  140  144  135  126  118  108  100   93   84   81   80   77   75
   72   70   69   71   66   65   63   63   63   62   61   62   59   58   59
   59   58   56   53   52   52   52   50   51   53   67   66   56   39   32
   10   19   33   42   57   82  107  117  118  103   89   56   38   22   31
   48  110  132  139  137  132  143  140  124  115  108   95  100   96   96
   84   80   86  103  121  130  134  136  136  130  121  111  104   97   90
   80   79   80   78   77   73   71   71   70   66   64   62   62   63   61
   61   61   58   59   58   58   55   54   52   52   52   49   49   49   43
   49   47   33   23   17    8   11   24   39   59   85  102  115  100   68
   49   17   13   24   43   73  114  128  133  127  127  137  130  111   99
   88   64   63   68   79   77   74   81   99  116  126  128  129  128  122
  113  106   98   94   86   78   77   77   78   76   73   71   69   66   65
   62   62   62   62   60   60   59   59   59   57   55   53   52   52   52
   53   47   50   46   36   27   24   15   11    9    8    8   17   39   60
   85  105  109   75   38   21   13   30   68   86  111  124  128  132  126
  129  129  114   98   83   66   36   29   38   60   74   76   85  102  116
  121  121  122  119  111  104  100   94   88   82   77   77   76   76   75
   73   71   67   65   63   62   61   61   61   59   58   60   59   58   56
   54   53   52   52   52   53   47   49   44   31   14   10    7    7    7
    7    8   16   39   59   87  104   92   45   19   20   48   83  114  113
  125  129  131  129  123  122  110   94   83   70   54   33   31   43   66
   79   86   96  109  116  119  119  118  111  100   92   90   87   82   80
   78   77   77   75   72   72   71   67   65   63   61   59   60   60   59
   59   58   59   57   55   54   52   53   52   52   52   47   49   43   31
   11    5    6    7    6    7    7   12   35   57   90   99   80   41   40
   55   97  113  113  121  124  134  140  128  119  109   89   76   68   55
   50   46   57   68   90   99  104  111  114  112  109  107  106  104   90
   84   83   81   78   79   81   77   76   71   69   70   71   68   64   62
   60   59   59   60   59   58   57   56   55   53   53   53   53   52   51
   50   49   50   43   36   13    6    6    8    4    9    5   13   28   62
   88   99   66   47   77  103  130  120  117  128  136  140  140  126  118
   91   62   49   52   57   53   67   81  104  112  117  117  115  108  103
  106  103   94   94   77   78   74   77   75   78   80   75   75   70   68
   70   68   65   65   62   61   59   59   59   59   58   56   55   54   52
   52   52   52   52   50   48   47   49   48   37   19    8    7    7    8
   12    4   11   24   59   90   90   69   79  117  128  127  115  126  137
  142  141  142  129  112   73   41   33   45   61   69   87  103  120  124
  123  116  107  101   97   98   96   90   74   66   69   67   69   69   75
   80   80   79   72   69   69   67   63   63   63   60   59   59   58   58
   58   57   56   54   53   52   52   52   52   50   53   48   45   44   40
   26   15    8   10    9   16    5    9   18   57   93   92   88  113  128
  129  129  127  145  144  148  141  140  129  109   73   48   50   70   94
  105  118  125  132  129  119  106   98   94   91   89   82   74   68   61
   59   52   57   63   72   84   82   82   75   69   68   66   63   64   63
   60   59   57   58   58   58   58   57   55   53   52   52   53   51   50
   52   48   45   45   42   32   17    6    6    4   20    5    7   14   53
   93   95  103  132  130  133  140  142  146  147  150  141  136  124  107
   82   72   80  102  123  128  127  129  128  122  109   99   93   90   87
   84   76   69   65   55   45   40   45   51   62   83   86   86   80   73
   69   66   63   63   60   59   57   57   58   58   57   58   57   56   54
   52   53   52   51   49   47   46   46   45   42   33   19    8    4    7
   24    6    7   12   50   90  107  107  132  137  145  145  144  147  146
  149  141  136  123  109   89   86   96  118  132  132  125  123  120  116
   98   92   86   81   76   76   73   68   62   48   39   35   35   37   52
   82   89   89   82   75   69   65   59   57   57   57   56   57   58   58
   57   57   58   56   54   52   53   51   50   48   47   45   43   40   40
   35   23   13    8    6   29   11    7   11   45   84  118  116  132  138
  144  143  149  152  147  146  135  133  124  120  109  106  116  129  135
  130  116  112  107  106   91   86   81   74   68   68   64   58   52   38
   29   25   19   25   44   80   82   85   81   74   70   64   60   58   55
   55   56   57   57   57   57   56   58   56   54   52   51   50   49   47
   47   43   41   41   41   34   22   11    8    6   37   13    8   10   39
   74  113  123  133  138  144  145  151  145  147  140  129  128  125  131
  130  129  129  134  127  121  105  101   94   93   89   79   72   67   62
   56   49   42   33   20   13   15   14   29   47   74   79   83   81   74
   70   66   62   59   56   56   56   55   56   55   57   56   58   55   54
   53   52   49   47   45   44   41   40   40   38   32   24   19   22   40
   43   17    9    8   34   66  113  122  125  134  138  139  152  148  143
  137  128  127  121  130  134  132  130  128  117  110   99  100   94   95
   87   66   52   48   42   34   27   22   17    9   11   21   31   55   67
   78   83   86   83   74   69   65   60   57   58   57   55   56   55   55
   56   57   57   56   54   52   51   49   46   43   41   39   36   34   31
   31   36   42   51   71   55   33   13    8   16   58  110  116  117  127
  135  140  152  143  139  131  124  119  119  125  127  124  122  114  106
   97   97  101   98   88   61   43   34   25   21   20   11   11   12   13
   27   47   62   72   82   89   91   88   85   81   72   67   61   57   55
   55   53   54   55   55   55   54   51   54   52   49   47   48   45   43
   41   33   30   32   35   41   55   68   80   81   67   37   12    9   14
   45  105  115  117  126  131  139  144  147  137  129  121  115  113  118
  123  119  115  109  102   97   92   90   81   68   40   31   26   18   12
   10    8   12   15   29   50   66   72   79   89   93   94   92   90   85
   75   69   64   57   55   54   52   53   54   54   54   54   53   52   52
   49   48   47   44   41   35   34   36   37   42   51   64   74   83   86
   74   43   14   11   13   37   92  108  108  116  123  134  135  141  132
  124  116  110  106  111  114  115  110  103   96   90   78   67   50   37
   27   20   18   14   12   15   16   23   33   53   75   82   81   88   96
   96   96   94   93   88   79   70   66   61   55   54   52   52   53   52
   54   54   52   50   49   50   47   42   38   35   37   49   53   54   61
   69   77   85   87   86   74   54   26   11    8   28   80  111  104  113
  119  132  134  135  126  119  112  105  100  102  105  106  105  100   91
   84   66   51   34   24   17   14   13   11   12   20   31   41   62   71
   81   82   83   94  100   98   97   94   94   89   80   72   67   64   56
   54   53   52   52   51   52   53   51   49   49   48   43   37   35   36
   46   64   71   71   77   81   83   87   90   90   83   74   42   19    9
   24   58  110  103  110  113  124  132  126  122  115  110  102   94   91
   91   91   91   87   80   74   52   38   24   20    8   10   13   18   24
   35   54   68   81   79   78   78   83   94  101  101   97   95   94   89
   81   71   66   63   57   54   52   50   50   50   50   50   50   50   47
   43   39   38   43   52   63   78   83   82   86   86   85   92   92   95
   94   80   46   25   14   19   34   98  104  107  104  111  124  119  116
  109  104   95   85   78   77   74   74   73   64   59   35   24   12   11
    6    9   14   31   52   67   82   86   80   77   77   80   86   97  104
  104  100   94   92   89   79   69   64   60   56   54   51   50   50   50
   49   49   48   47   42   40   40   47   61   72   83   88   89   90   91
   91   91   98   98   99   89   76   49   37   26   19   24   82  107  105
  102  107  114  115  109  102   96   87   77   69   66   63   65   62   51
   47   25   21   11   10   10   21   31   56   77   84   88   82   75   73
   77   83   91  101  106  103   99   92   89   84   76   67   61   57   53
   51   50   50   49   49   49   50   45   43   41   43   52   66   78   84
   89   92   92   93   94   96   98  100  103  103   84   82   71   64   49
   33   19   66  103   98  100  107  104  107  105   96   90   83   73   67
   63   60   54   51   38   35   16   19   11   13   25   46   68   88   92
   83   82   74   71   72   76   84   95  107  108   98   97   90   85   81
   74   65   59   55   51   50   49   49   50   50   50   50   44   42   43
   50   67   82   89   86   95   98  101  101  101  106  107  102  109  107
   95   87   78   72   63   41   25   48   97   97   96   95  100  102   96
   92   86   78   71   66   63   60   55   44   34   22   23   19   27   34
   66   85   96   92   81   72   69   68   69   76   86   95  100  107  111
   97   95   89   86   80   68   61   57   54   51   49   49   51   52   51
   51   45   40   47   58   67   78   88   95   98  101  103  104  105  107
  110  112  109  108  109   97   96   90   82   73   57   39   44   87   94
   93   91   97   96   94   90   85   77   72   67   65   62   53   46   37
   27   33   38   53   64   93   96   95   87   79   72   67   71   75   89
   99  110  114  116  113  100   93   87   81   77   66   59   54   50   46
   48   47   47   49   50   45   40   46   60   74   83   90   98   99   98
  105  107  111  113  113  112  111  109  111  112  100  104   98   86   83
   74   64   49   81   93   91   88   96   90   92   88   84   78   74   69
   68   67   65   57   49   44   59   74   91   99   99   92   82   76   72
   66   69   79   90  108  116  121  123  117  108   93   88   81   77   72
   63   56   51   45   43   49   51   52   51   46   41   43   64   78   92
   93   97  104  107  107  112  113  116  117  116  112  111  111  115  116
  103  104  100   88   89   87   82   62   80   92   94   88   91   90   90
   88   85   81   77   73   71   70   72   62   55   54   76   94  105  105
   93   87   77   72   72   75   88  104  115  131  131  129  125  114  102
   91   83   76   72   67   58   51   47   42   47   50   47   43   43   38
   45   66   92  102  108  108  108  115  120  123  121  120  119  119  116
  113  113  118  120  121  107  105  100   89   95   92   84   75   81   90
   95   89   87   89   89   88   85   84   79   76   73   72   72   65   59
   58   82   96  104  100   87   83   75   71   78   90  105  120  130  138
  131  123  116  104   93   84   76   72   68   62   51   46   44   42   44
   48   43   40   43   50   66   89  102  106  110  114  115  117  119  120
  124  123  120  120  117  116  118  124  124  127  114  108  106   90   96
   90   82   81   83   90   96   88   85   89   86   86   84   84   80   78
   75   73   72   70   68   66   84   96  107  107  101   96   88   86  100
  117  131  137  135  134  124  113  104   89   81   74   71   65   62   55
   46   41   42   42   41   45   41   41   57   78   95  104  116  117  119
  123  125  125  126  128  125  125  124  122  120  121  122  125  126  126
  116  111  110   94   95   88   87   85   85   95   96   90   87   86   83
   84   82   80   78   77   74   74   72   71   71   71   86   97  108  113
  108  105  101  104  119  134  137  137  137  125  110  103   92   80   75
   67   65   59   54   49   41   38   41   41   42   39   40   53   76  100
  116  120  122  121  122  122  124  126  127  129  127  126  126  124  122
  124  124  124  124  124  109  108  114   97  100   95   94   85   86   99
   94   89   88   80   83   81   78   77   75   75   74   74   74   72   73
   74   91  100  110  115  119  118  117  126  137  143  139  138  125  109
   91   87   77   67   69   64   62   55   49   44   38   36   40   41   39
   38   57   91  115  123  123  125  123  126  127  125  126  129  130  128
  129  128  126  122  121  124  125  122  121  120  112  118  117  105   94
   92   96   95  102  103   99   97   89   80   79   76   77   75   72   74
   75   71   73   71   74   81   91  100  108  114  121  128  131  132  135
  136  128  117  107   96   76   73   69   59   59   56   52   47   44   39
   34   33   36   38   46   74  108  126  127  124  124  125  125  125  124
  125  128  130  131  129  130  128  125  123  122  121  120  118  119  116
  120  118  111  104  101  103  107  112  109  107  109  105   92   83   79
   76   74   72   73   76   76   71   72   71   74   81   90   96  103  108
  113  121  125  123  120  117  107   97   85   79   65   63   61   57   55
   47   47   39   33   28   27   34   48   63   96  113  127  129  125  124
  126  125  129  127  127  128  128  129  129  127  127  125  123  121  119
  117  116  117  118  116  122  119  116  117  116  113  109  117  106  107
  115  109   95   81   78   76   73   73   72   73   74   69   70   70   73
   78   84   89   94   98  109  115  118  116  110  105   95   85   72   70
   59   54   52   50   47   38   33   32   28   31   43   58   78   99  118
  124  128  126  124  126  127  126  131  130  129  127  129  128  126  124
  124  124  122  120  118  115  115  117  115  115  125  123  125  127  126
  121  119  128  116  122  130  126  114   90   79   77   77   74   69   68
   69   68   67   67   71   73   77   81   85   86   91   96   98   96   92
   86   79   70   69   63   56   49   44   40   37   33   30   35   36   47
   73   98  117  133  125  126  126  125  126  127  127  125  127  128  126
  126  126  125  123  122  122  121  121  119  116  115  116  116  114  113
  131  130  128  128  130  131  128  129  123  131  132  128  123   89   82
   78   76   74   69   68   67   66   63   66   68   70   72   74   74   76
   83   84   86   85   84   80   74   66   56   52   51   48   39   30   25
   26   30   50   66   86  111  124  123  121  129  124  122  126  127  126
  126  129  126  126  125  124  125  123  121  120  120  120  119  117  115
  113  114  114  112  111  132  134  136  138  139  140  140  135  136  143
  138  138  134  103   88   79   70   70   69   70   68   62   61   64   65
   65   66   67   66   65   63   64   67   68   67   64   57   52   56   44
   37   32   32   40   55   75   91  105  114  118  127  132  131  130  122
  119  119  125  126  124  126  129  128  127  126  123  123  121  120  120
  120  118  117  117  115  114  113  114  112  110  135  137  142  147  145
  143  142  137  138  139  134  136  133  116  101   87   76   70   66   65
   63   61   60   60   60   59   60   60   57   55   50   49   50   51   50
   49   48   48   42   42   53   62   75   92  103  119  124  128  132  131
  127  123  121  119  122  123  125  127  127  126  124  123  127  126  125
  122  120  120  120  120  120  118  117  116  115  115  113  113  110  109
  143  143  142  142  142  141  140  136  134  131  126  128  130  128  117
  111   88   76   75   62   64   62   61   60   59   57   56   55   53   53
   51   45   41   43   42   43   48   51   60   70   77   89  102  116  128
  129  128  127  127  130  129  124  117  121  121  121  121  121  124  124
  125  126  124  124  125  123  119  119  120  117  118  118  117  115  116
  114  113  111  111  112  146  147  146  145  143  144  141  142  137  128
  119  115  118  120  113  116  105   97   89   66   60   56   57   57   57
   58   55   51   49   41   43   43   42   42   44   52   63   71   85   99
  110  121  126  128  131  129  129  127  126  126  126  126  125  120  120
  120  121  122  122  123  124  126  125  125  124  123  119  118  119  119
  118  117  116  114  114  114  114  112  114  116